<?xml version="1.0" ?>

<!DOCTYPE svg  PUBLIC '-//W3C//DTD SVG 1.1//EN'  'http://www.w3.org/Graphics/SVG/1.1/DTD/svg11.dtd'>

<!-- Uploaded to: SVG Repo, www.svgrepo.com, Generator: SVG Repo Mixer Tools -->
<svg width="800px" height="800px" viewBox="0 0 512 512" version="1.1" xml:space="preserve" xmlns="http://www.w3.org/2000/svg" xmlns:xlink="http://www.w3.org/1999/xlink">

<g id="_x34_99_x2C__student_x2C__education_x2C__graduate_x2C__learning">

<g>

<path d="M394.9,162.36c8.89,0,16.1,7.21,16.1,16.11c0,8.89-7.21,16.1-16.1,16.1    c-8.9,0-16.11-7.21-16.11-16.1C378.79,169.57,386,162.36,394.9,162.36z" style="fill:#FF7979;"/>

<path d="M383.796,187.595c0-8.9,7.21-16.11,16.11-16.11c4.182,0,7.979,1.608,10.841,4.224    c-1.312-7.581-7.899-13.349-15.847-13.349c-8.9,0-16.11,7.21-16.11,16.11c0,4.707,2.034,8.93,5.258,11.874    C383.893,189.449,383.796,188.534,383.796,187.595z" style="fill:#D65B5B;"/>

<path d="M394.9,77.57l-39.971,37.61c-0.01-9.24-0.069-18.39,0.08-28.29    c-67.779-28.29-128.82-26.8-185.57-2.94c-0.14,8.97-0.08,18.07-0.01,27.18l-0.18,0.58l-40.07-34.14L261,16L394.9,77.57z" style="fill:#414A56;"/>

<g>

<polygon points="262.75,26.25 388.157,83.915 394.9,77.57 261,16 129.18,77.57 137.57,84.718    " style="fill:#353E47;"/>

<path d="M356.76,97.14c-0.614-0.256-1.224-0.493-1.837-0.744c-0.027,6.389,0,12.569,0.007,18.784     l1.731-1.629C356.658,108.221,356.674,102.805,356.76,97.14z" style="fill:#353E47;"/>

</g>

<path d="M354.93,115.18C354.94,123.81,351,136,351,146c-62.02-19.22-118.5-17.25-180,0    c0.16-10.18-1.49-24.53-1.57-34.87c-0.07-9.11-0.13-18.21,0.01-27.18c56.75-23.86,117.791-25.35,185.57,2.94    C354.86,96.79,354.92,105.94,354.93,115.18z" style="fill:#57606F;"/>

<path d="M180.484,143.461c-0.438-8.303-1.249-17.407-1.304-24.582c-0.07-9.11-0.13-18.21,0.01-27.18    c54.001-22.705,111.891-25.132,175.771-0.941c0.014-1.278,0.029-2.566,0.049-3.869c-67.779-28.29-128.82-26.8-185.57-2.94    c-0.14,8.97-0.08,18.07-0.01,27.18c0.08,10.34,1.73,24.69,1.57,34.87C174.175,145.109,177.334,144.27,180.484,143.461z" style="fill:#414A56;"/>

<polygon points="371,496 291,496 258.46,375.67 290.21,396.91 343.15,330.73 451,366.86 451,496   " style="fill:#A8CFFF;"/>

<polygon points="261.631,386.92 293.381,408.16 346.321,341.98 451,377.048 451,366.86 343.15,330.73     290.21,396.91 258.46,375.67 291,496 291.129,496   " style="fill:#8BBAE8;"/>

<path d="M351,146c9.11,55.31-30.7,150-90.3,150c-58.63,0-89.7-89.98-89.7-139.84c0-3.5-0.13-7.03,0-10.16    C232.5,128.75,288.98,126.78,351,146z" style="fill:#F7BE86;"/>

<path d="M180.838,164.252c0-3.5-0.13-7.03,0-10.16c58.473-16.401,112.412-18.974,170.886-2.669    c-0.192-1.845-0.433-3.654-0.724-5.423c-62.02-19.22-118.5-17.25-180,0c-0.13,3.13,0,6.66,0,10.16    c0,39.25,19.259,103.352,56.054,128.859C196.672,255.861,180.838,199.841,180.838,164.252z" style="fill:#E2AD7D;"/>

<polygon points="317.29,300 343.15,330.73 290.21,396.91 258.46,375.67   " style="fill:#E8F9F9;"/>

<polygon points="317.29,311.916 338.264,336.84 343.15,330.73 317.29,300 258.46,375.67 264.555,379.747       " style="fill:#CCE5E4;"/>

<polygon points="258.46,375.67 291,496 223.75,496   " style="fill:#D7DEED;"/>

<polygon points="263.222,393.279 258.46,375.67 223.75,496 233.591,496   " style="fill:#AFB9D2;"/>

<polygon points="205.86,300 258.46,375.67 224.02,396.91 185.78,329.15   " style="fill:#E8F9F9;"/>

<polygon points="205.86,313.25 252.013,379.646 258.46,375.67 205.86,300 185.78,329.15 189.89,336.434       " style="fill:#CCE5E4;"/>

<polygon points="141,496 61,496 61,355.71 185.78,329.15 224.02,396.91 258.46,375.67 223.75,496   " style="fill:#A8CFFF;"/>

<g>

<g>

<g>

<polygon points="233.854,404.744 253.583,392.576 258.46,375.67 228.035,394.434      " style="fill:#8BBAE8;"/>

</g>

<g>

<polygon points="70.833,363.544 190.781,338.013 185.78,329.15 61,355.71 61,496 70.833,496      " style="fill:#8BBAE8;"/>

</g>

</g>

</g>

<path d="M141,501H61c-2.761,0-5-2.238-5-5V355.71c0-2.36,1.65-4.399,3.959-4.891l124.78-26.56c2.704-0.569,5.356,1.149,5.932,3.85    c0.575,2.701-1.149,5.356-3.85,5.932L66,359.758V491h75c2.761,0,5,2.238,5,5S143.761,501,141,501z"/>

<path d="M451,501h-80c-2.762,0-5-2.238-5-5s2.238-5,5-5h75V370.458l-104.438-34.986c-2.619-0.877-4.03-3.711-3.153-6.329    c0.878-2.619,3.719-4.029,6.329-3.153l107.85,36.13c2.038,0.683,3.412,2.592,3.412,4.741V496C456,498.762,453.762,501,451,501z"/>

<path d="M371,501H141c-2.761,0-5-2.238-5-5v-73.43c0-2.762,2.239-5,5-5s5,2.238,5,5V491h220v-68.43c0-2.762,2.238-5,5-5    s5,2.238,5,5V496C376,498.762,373.762,501,371,501z"/>

<path d="M260.7,301c-35.49,0-58.342-29.31-71.263-53.896C175.2,220.01,166,184.312,166,156.16c0-1.159-0.015-2.321-0.029-3.47    c-0.029-2.304-0.059-4.688,0.033-6.897c0.115-2.758,2.442-4.896,5.203-4.788c2.759,0.114,4.903,2.444,4.788,5.203    c-0.081,1.94-0.054,4.086-0.025,6.358c0.015,1.19,0.03,2.395,0.03,3.595c0,26.653,8.75,60.524,22.29,86.292    C209.928,264.6,230.204,291,260.7,291c22.388,0,39.612-14.758,50.12-27.138c25.606-30.168,41.088-81.583,35.246-117.05    c-0.449-2.725,1.396-5.297,4.121-5.746c2.73-0.452,5.297,1.396,5.746,4.121c6.368,38.662-9.749,92.463-37.489,125.146    C301.417,290.396,281.449,301,260.7,301z"/>

<path d="M224.02,401.91c-0.417,0-0.836-0.052-1.248-0.158c-1.317-0.339-2.438-1.2-3.107-2.385l-38.24-67.76    c-0.939-1.664-0.848-3.719,0.237-5.293l20.08-29.15c0.931-1.352,2.466-2.16,4.107-2.164c0.003,0,0.007,0,0.011,0    c1.637,0,3.171,0.802,4.105,2.146l52.6,75.67c0.784,1.128,1.069,2.528,0.789,3.873c-0.279,1.345-1.101,2.515-2.27,3.236    l-34.44,21.24C225.849,401.657,224.939,401.91,224.02,401.91z M191.67,329.414l34.15,60.512l25.52-15.739l-45.461-65.399    L191.67,329.414z"/>

<path d="M290.207,401.91c-0.959,0-1.926-0.274-2.777-0.844l-31.75-21.24c-1.153-0.772-1.935-1.988-2.156-3.358    s0.137-2.771,0.989-3.867l58.83-75.67c0.927-1.191,2.342-1.9,3.851-1.93c1.49-0.046,2.95,0.624,3.922,1.779l25.86,30.73    c1.536,1.825,1.569,4.48,0.079,6.343l-52.94,66.18C293.132,401.262,291.679,401.91,290.207,401.91z M265.703,374.5l23.471,15.701    l47.51-59.391l-19.239-22.862L265.703,374.5z"/>

<path d="M223.752,501.001c-0.459,0-0.925-0.063-1.388-0.197c-2.653-0.765-4.184-3.536-3.418-6.189l34.71-120.33    c0.765-2.652,3.532-4.188,6.19-3.418c2.653,0.765,4.184,3.536,3.418,6.189l-34.709,120.33    C227.922,499.576,225.923,501.001,223.752,501.001z"/>

<path d="M290.997,501.001c-2.203,0-4.221-1.467-4.823-3.695l-32.541-120.33c-0.721-2.666,0.856-5.411,3.521-6.132    c2.671-0.723,5.411,0.854,6.132,3.521l32.54,120.33c0.722,2.666-0.855,5.411-3.521,6.132    C291.868,500.944,291.429,501.001,290.997,501.001z"/>

<path d="M261.741,251c-13.938,0-24.054-11.201-24.478-11.678c-1.835-2.064-1.649-5.224,0.415-7.059    c2.06-1.832,5.212-1.65,7.048,0.403c0.125,0.138,7.658,8.334,17.015,8.334c0.02,0,0.038,0,0.058,0    c5.37-0.02,10.573-2.819,15.464-8.322c1.836-2.063,4.995-2.251,7.06-0.415c2.063,1.834,2.249,4.995,0.415,7.059    C277.849,247.071,270.112,251,261.741,251z"/>

<path d="M231,181h-20c-2.761,0-5-2.239-5-5s2.239-5,5-5h20c2.761,0,5,2.239,5,5S233.761,181,231,181z"/>

<path d="M311,181h-20c-2.762,0-5-2.239-5-5s2.238-5,5-5h20c2.762,0,5,2.239,5,5S313.762,181,311,181z"/>

<path d="M354.931,120.18c-1.331,0-2.658-0.528-3.643-1.574c-1.893-2.011-1.796-5.175,0.215-7.068l34.567-32.526L261.017,21.511    L138.343,78.809l32.219,27.451c0.117,0.027,0.234,0.059,0.351,0.095c2.637,0.819,4.111,3.621,3.292,6.258l-0.18,0.581    c-0.499,1.604-1.77,2.852-3.384,3.319c-1.614,0.466-3.355,0.092-4.634-0.997l-40.07-34.14c-1.295-1.104-1.94-2.79-1.712-4.476    c0.228-1.686,1.298-3.14,2.839-3.86l131.819-61.57c1.334-0.622,2.871-0.625,4.205-0.013l133.9,61.57    c1.511,0.695,2.577,2.095,2.846,3.736s-0.297,3.309-1.508,4.448l-39.971,37.61C357.391,119.73,356.159,120.18,354.931,120.18z"/>

<path d="M351,151c-0.496,0-0.995-0.074-1.48-0.224c-29.23-9.059-57.467-13.462-86.324-13.462c-28.741,0-58.457,4.416-90.845,13.5    c-1.519,0.428-3.151,0.11-4.402-0.854c-1.25-0.963-1.973-2.461-1.948-4.039c0.083-5.297-0.357-11.986-0.782-18.456    c-0.369-5.604-0.75-11.399-0.788-16.297c-0.075-9.756-0.126-18.544,0.01-27.296c0.031-1.984,1.232-3.762,3.062-4.531    c29.167-12.263,59.212-18.481,89.301-18.481c32.396,0,66.086,7.206,100.133,21.416c1.888,0.788,3.104,2.645,3.073,4.689    c-0.12,7.957-0.104,15.547-0.089,22.888l0.01,5.322c0.006,4.62-0.938,9.777-1.939,15.236C357.012,135.754,356,141.278,356,146    c0,1.588-0.755,3.083-2.033,4.025C353.097,150.666,352.055,151,351,151z M174.396,87.314c-0.079,7.582-0.032,15.311,0.034,23.777    c0.035,4.608,0.391,10.005,0.766,15.718c0.28,4.253,0.566,8.599,0.713,12.669c30.873-8.181,59.487-12.165,87.286-12.165    c27.874,0,55.162,3.96,83.224,12.093c0.415-3.588,1.082-7.23,1.735-10.797c0.915-4.997,1.78-9.717,1.775-13.423l-0.01-5.313    c-0.013-6.333-0.026-12.85,0.047-19.651c-31.754-12.851-63.081-19.363-93.164-19.363C229.087,70.86,201.379,76.395,174.396,87.314    z"/>

<path d="M394.9,167.36c-2.762,0-5-2.239-5-5V81.84c0-2.761,2.238-5,5-5s5,2.239,5,5v80.52    C399.9,165.121,397.662,167.36,394.9,167.36z"/>

<path d="M394.9,199.57c-11.641,0-21.11-9.465-21.11-21.1c0-11.64,9.47-21.11,21.11-21.11c11.635,0,21.1,9.47,21.1,21.11    C416,190.104,406.535,199.57,394.9,199.57z M394.9,167.36c-6.126,0-11.11,4.984-11.11,11.11c0,6.12,4.984,11.1,11.11,11.1    c6.12,0,11.1-4.979,11.1-11.1C406,172.344,401.021,167.36,394.9,167.36z"/>

</g>

</g>

<g id="Layer_1"/>

</svg>